<svg width="15" height="21" viewBox="0 0 15 21" fill="none" xmlns="http://www.w3.org/2000/svg">
<path fill-rule="evenodd" clip-rule="evenodd" d="M0.779297 7.30029C0.779297 3.57507 3.79919 0.555176 7.52441 0.555176C11.2496 0.555176 14.2695 3.57507 14.2695 7.30029C14.2695 11.0255 11.2496 14.0454 7.52441 14.0454C3.79919 14.0454 0.779297 11.0255 0.779297 7.30029Z" fill="white"/>
<path d="M2.65045 13.474C2.30564 13.2011 1.76624 13.3507 1.6596 13.7772L0.959657 16.577C0.241932 19.4479 3.30573 21.7852 5.88495 20.3344L6.97823 19.7194C7.32045 19.5269 7.7383 19.5269 8.08052 19.7194L9.1738 20.3344C11.753 21.7852 14.8168 19.4479 14.0991 16.577L13.3992 13.7772C13.2925 13.3507 12.7531 13.2011 12.4083 13.474C11.0672 14.5351 9.37227 15.1686 7.52938 15.1686C5.68648 15.1686 3.99154 14.5351 2.65045 13.474Z" fill="white"/>
</svg>
