<svg width="21" height="21" viewBox="0 0 21 21" fill="none" xmlns="http://www.w3.org/2000/svg">
<path fill-rule="evenodd" clip-rule="evenodd" d="M3.79232 0.769336C4.52306 0.606936 5.38811 0.555176 6.37872 0.555176H15.1794C16.1701 0.555176 17.0351 0.606936 17.7658 0.769336C18.5081 0.934288 19.1722 1.22652 19.6955 1.74984C20.2188 2.27316 20.5111 2.93731 20.676 3.67953C20.8384 4.41027 20.8902 5.27531 20.8902 6.26593V11.0222C20.8902 12.0128 20.8384 12.8779 20.676 13.6086C20.5111 14.3508 20.2188 15.015 19.6955 15.5383C19.1722 16.0616 18.5081 16.3538 17.7658 16.5188C17.0351 16.6812 16.1701 16.733 15.1794 16.733H12.8013L14.6213 19.1596C14.9564 19.6064 14.8658 20.2401 14.4191 20.5752C13.9723 20.9102 13.3386 20.8197 13.0035 20.373L10.7791 17.407L8.55464 20.373C8.21958 20.8197 7.58582 20.9102 7.13908 20.5752C6.69234 20.2401 6.6018 19.6064 6.93686 19.1596L8.75686 16.733H6.37872C5.38811 16.733 4.52306 16.6812 3.79232 16.5188C3.0501 16.3538 2.38595 16.0616 1.86263 15.5383C1.33931 15.015 1.04708 14.3508 0.882129 13.6086C0.719729 12.8779 0.667969 12.0128 0.667969 11.0222V6.26593C0.667969 5.27531 0.719729 4.41027 0.882129 3.67953C1.04708 2.93731 1.33931 2.27316 1.86263 1.74984C2.38595 1.22652 3.0501 0.934288 3.79232 0.769336ZM11.7902 5.61073C11.7902 5.05231 11.3375 4.59962 10.7791 4.59962C10.2207 4.59962 9.76797 5.05231 9.76797 5.61073L9.76797 11.6774C9.76797 12.2358 10.2207 12.6885 10.7791 12.6885C11.3375 12.6885 11.7902 12.2358 11.7902 11.6774L11.7902 5.61073ZM14.8235 5.61073C15.3819 5.61073 15.8346 6.06342 15.8346 6.62184L15.8346 11.6774C15.8346 12.2358 15.3819 12.6885 14.8235 12.6885C14.2651 12.6885 13.8124 12.2358 13.8124 11.6774L13.8124 6.62184C13.8124 6.06342 14.2651 5.61073 14.8235 5.61073ZM7.74575 7.63295C7.74575 7.07453 7.29306 6.62184 6.73463 6.62184C6.17621 6.62184 5.72352 7.07453 5.72352 7.63295L5.72352 11.6774C5.72352 12.2358 6.17621 12.6885 6.73463 12.6885C7.29306 12.6885 7.74575 12.2358 7.74575 11.6774L7.74575 7.63295Z" fill="white"/>
</svg>
