<svg width="27" height="27" viewBox="0 0 27 27" fill="none" xmlns="http://www.w3.org/2000/svg">
<path fill-rule="evenodd" clip-rule="evenodd" d="M4.71094 11.6214C4.71094 8.27083 7.42708 5.55469 10.7776 5.55469C14.1281 5.55469 16.8443 8.27083 16.8443 11.6214C16.8443 14.9719 14.1281 17.688 10.7776 17.688C7.42708 17.688 4.71094 14.9719 4.71094 11.6214Z" fill="white"/>
<path fill-rule="evenodd" clip-rule="evenodd" d="M4.07724 20.3307C5.72786 19.5429 7.93891 19.2886 10.7791 19.2886C13.6193 19.2886 15.8303 19.5429 17.4809 20.3307C19.2231 21.1622 20.2801 22.5566 20.8445 24.572C20.94 24.9131 20.8839 25.2842 20.6934 25.5719C20.5028 25.8595 20.2005 26.0293 19.8791 26.0293H1.67909C1.35765 26.0293 1.05536 25.8595 0.864804 25.5719C0.674249 25.2842 0.618132 24.9131 0.713641 24.572C1.27811 22.5566 2.33501 21.1622 4.07724 20.3307Z" fill="white"/>
<path d="M17.7773 4.2859L20.3972 6.90578L25.637 1.66602" stroke="white" stroke-width="1.55556" stroke-linecap="round" stroke-linejoin="round"/>
</svg>
