<svg xmlns="http://www.w3.org/2000/svg" xmlns:xlink="http://www.w3.org/1999/xlink"><symbol id="close" viewBox="0 0 24 24"><g fill="none">
<path fill-rule="evenodd" clip-rule="evenodd" d="M18.7071 5.29289C19.0976 5.68342 19.0976 6.31658 18.7071 6.70711L6.70711 18.7071C6.31658 19.0976 5.68342 19.0976 5.29289 18.7071C4.90237 18.3166 4.90237 17.6834 5.29289 17.2929L17.2929 5.29289C17.6834 4.90237 18.3166 4.90237 18.7071 5.29289Z" fill="currentColor"/>
<path fill-rule="evenodd" clip-rule="evenodd" d="M5.29289 5.29289C5.68342 4.90237 6.31658 4.90237 6.70711 5.29289L18.7071 17.2929C19.0976 17.6834 19.0976 18.3166 18.7071 18.7071C18.3166 19.0976 17.6834 19.0976 17.2929 18.7071L5.29289 6.70711C4.90237 6.31658 4.90237 5.68342 5.29289 5.29289Z" fill="currentColor"/>
</g></symbol><symbol id="courses" viewBox="0 0 21 21"><g fill="none">
<path fill-rule="evenodd" clip-rule="evenodd" d="M3.79232 0.769336C4.52306 0.606936 5.38811 0.555176 6.37872 0.555176H15.1794C16.1701 0.555176 17.0351 0.606936 17.7658 0.769336C18.5081 0.934288 19.1722 1.22652 19.6955 1.74984C20.2188 2.27316 20.5111 2.93731 20.676 3.67953C20.8384 4.41027 20.8902 5.27531 20.8902 6.26593V11.0222C20.8902 12.0128 20.8384 12.8779 20.676 13.6086C20.5111 14.3508 20.2188 15.015 19.6955 15.5383C19.1722 16.0616 18.5081 16.3538 17.7658 16.5188C17.0351 16.6812 16.1701 16.733 15.1794 16.733H12.8013L14.6213 19.1596C14.9564 19.6064 14.8658 20.2401 14.4191 20.5752C13.9723 20.9102 13.3386 20.8197 13.0035 20.373L10.7791 17.407L8.55464 20.373C8.21958 20.8197 7.58582 20.9102 7.13908 20.5752C6.69234 20.2401 6.6018 19.6064 6.93686 19.1596L8.75686 16.733H6.37872C5.38811 16.733 4.52306 16.6812 3.79232 16.5188C3.0501 16.3538 2.38595 16.0616 1.86263 15.5383C1.33931 15.015 1.04708 14.3508 0.882129 13.6086C0.719729 12.8779 0.667969 12.0128 0.667969 11.0222V6.26593C0.667969 5.27531 0.719729 4.41027 0.882129 3.67953C1.04708 2.93731 1.33931 2.27316 1.86263 1.74984C2.38595 1.22652 3.0501 0.934288 3.79232 0.769336ZM11.7902 5.61073C11.7902 5.05231 11.3375 4.59962 10.7791 4.59962C10.2207 4.59962 9.76797 5.05231 9.76797 5.61073L9.76797 11.6774C9.76797 12.2358 10.2207 12.6885 10.7791 12.6885C11.3375 12.6885 11.7902 12.2358 11.7902 11.6774L11.7902 5.61073ZM14.8235 5.61073C15.3819 5.61073 15.8346 6.06342 15.8346 6.62184L15.8346 11.6774C15.8346 12.2358 15.3819 12.6885 14.8235 12.6885C14.2651 12.6885 13.8124 12.2358 13.8124 11.6774L13.8124 6.62184C13.8124 6.06342 14.2651 5.61073 14.8235 5.61073ZM7.74575 7.63295C7.74575 7.07453 7.29306 6.62184 6.73463 6.62184C6.17621 6.62184 5.72352 7.07453 5.72352 7.63295L5.72352 11.6774C5.72352 12.2358 6.17621 12.6885 6.73463 12.6885C7.29306 12.6885 7.74575 12.2358 7.74575 11.6774L7.74575 7.63295Z" fill="white"/>
</g></symbol><symbol id="down" viewBox="0 0 11 8"><g fill="none">
<path d="M5.49975 8L0.974894 0.5L10.0246 0.5L5.49975 8Z" fill="#BABABA"/>
</g></symbol><symbol id="left" viewBox="0 0 7 12"><g fill="none">
<path d="M0.288541 6.54545L5.43706 11.7273C5.80481 12.0909 6.35644 12.0909 6.72419 11.7273C7.09194 11.3636 7.09194 10.8182 6.72419 10.4545L2.21924 6L6.72419 1.54545C6.90806 1.36364 7 1.18182 7 0.909091C7 0.363636 6.63225 0 6.08062 0C5.80481 0 5.62093 0.0909081 5.43706 0.272726L0.196603 5.45455C-0.0792103 5.63636 -0.0792098 6.18182 0.288541 6.54545Z" fill="#2B2B2B"/>
</g></symbol><symbol id="open" viewBox="0 0 22 12"><g fill="none">
<rect width="22" height="2" rx="1" fill="#171716"/>
<rect y="5" width="22" height="2" rx="1" fill="#171716"/>
<rect x="10" y="10" width="12" height="2" rx="1" fill="#171716"/>
</g></symbol><symbol id="rhomb" viewBox="0 0 16 16"><g fill="none">
<path d="M7.77778 0.333008L9.87848 6.01008L15.5556 8.11079L9.87848 10.2115L7.77778 15.8886L5.67707 10.2115L0 8.11079L5.67707 6.01008L7.77778 0.333008Z" fill="#A6A6A6"/>
</g></symbol><symbol id="right" viewBox="0 0 7 12"><g fill="none">
<path d="M6.71146 6.54545L1.56294 11.7273C1.19519 12.0909 0.643565 12.0909 0.275814 11.7273C-0.0919376 11.3636 -0.0919376 10.8182 0.275814 10.4545L4.78076 6L0.275814 1.54545C0.091938 1.36364 0 1.18182 0 0.909091C0 0.363636 0.367751 0 0.919378 0C1.19519 0 1.37907 0.0909081 1.56294 0.272726L6.8034 5.45455C7.07921 5.63636 7.07921 6.18182 6.71146 6.54545Z" fill="#2B2B2B"/>
</g></symbol><symbol id="star" viewBox="0 0 14 13"><g fill="none">
<path d="M6.81045 0L8.33949 4.70591L13.2876 4.70591L9.28449 7.61432L10.8135 12.3202L6.81045 9.41181L2.80737 12.3202L4.33641 7.61432L0.333327 4.70591L5.28141 4.70591L6.81045 0Z" fill="#FECD1E"/>
</g></symbol><symbol id="teachers" viewBox="0 0 15 21"><g fill="none">
<path fill-rule="evenodd" clip-rule="evenodd" d="M0.779297 7.30029C0.779297 3.57507 3.79919 0.555176 7.52441 0.555176C11.2496 0.555176 14.2695 3.57507 14.2695 7.30029C14.2695 11.0255 11.2496 14.0454 7.52441 14.0454C3.79919 14.0454 0.779297 11.0255 0.779297 7.30029Z" fill="white"/>
<path d="M2.65045 13.474C2.30564 13.2011 1.76624 13.3507 1.6596 13.7772L0.959657 16.577C0.241932 19.4479 3.30573 21.7852 5.88495 20.3344L6.97823 19.7194C7.32045 19.5269 7.7383 19.5269 8.08052 19.7194L9.1738 20.3344C11.753 21.7852 14.8168 19.4479 14.0991 16.577L13.3992 13.7772C13.2925 13.3507 12.7531 13.2011 12.4083 13.474C11.0672 14.5351 9.37227 15.1686 7.52938 15.1686C5.68648 15.1686 3.99154 14.5351 2.65045 13.474Z" fill="white"/>
</g></symbol><symbol id="users" viewBox="0 0 27 27"><g fill="none">
<path fill-rule="evenodd" clip-rule="evenodd" d="M4.71094 11.6214C4.71094 8.27083 7.42708 5.55469 10.7776 5.55469C14.1281 5.55469 16.8443 8.27083 16.8443 11.6214C16.8443 14.9719 14.1281 17.688 10.7776 17.688C7.42708 17.688 4.71094 14.9719 4.71094 11.6214Z" fill="white"/>
<path fill-rule="evenodd" clip-rule="evenodd" d="M4.07724 20.3307C5.72786 19.5429 7.93891 19.2886 10.7791 19.2886C13.6193 19.2886 15.8303 19.5429 17.4809 20.3307C19.2231 21.1622 20.2801 22.5566 20.8445 24.572C20.94 24.9131 20.8839 25.2842 20.6934 25.5719C20.5028 25.8595 20.2005 26.0293 19.8791 26.0293H1.67909C1.35765 26.0293 1.05536 25.8595 0.864804 25.5719C0.674249 25.2842 0.618132 24.9131 0.713641 24.572C1.27811 22.5566 2.33501 21.1622 4.07724 20.3307Z" fill="white"/>
<path d="M17.7773 4.2859L20.3972 6.90578L25.637 1.66602" stroke="white" stroke-width="1.55556" stroke-linecap="round" stroke-linejoin="round"/>
</g></symbol></svg>